<?xml version="1.0" encoding="UTF-8" standalone="no"?>
<svg width="12px" height="12px" viewBox="0 0 12 12" version="1.1" xmlns="http://www.w3.org/2000/svg" xmlns:xlink="http://www.w3.org/1999/xlink">
    <!-- Generator: Sketch Beta 39.1 (31721) - http://www.bohemiancoding.com/sketch -->
    <title>Star Copy 10</title>
    <desc>Created with Sketch Beta.</desc>
    <defs></defs>
    <g id="Page-1" stroke="none" stroke-width="1" fill="none" fill-rule="evenodd">
        <g id="MovieList---2-Copy" transform="translate(-24.000000, -356.000000)" fill="#1ED760">
            <g id="Category" transform="translate(14.000000, 85.000000)">
                <g id="MovieList" transform="translate(0.000000, 48.000000)">
                    <g id="Movie">
                        <g id="Rating" transform="translate(10.000000, 223.000000)">
                            <path d="M6.18186736,9.42499992 L3.20917911,11.2407066 C2.74088809,11.526737 2.46466152,11.3251411 2.59179859,10.7921535 L3.40002712,7.40387468 L0.754576217,5.13776439 C0.33783528,4.78078141 0.444205674,4.45577778 0.990394588,4.41199007 L4.46259554,4.13362535 L5.80030522,0.917385442 C6.01103617,0.410727453 6.35300325,0.411460062 6.5634295,0.917385442 L7.90113917,4.13362535 L11.3733401,4.41199007 C11.92032,4.45584118 12.0252968,4.7812976 11.6091585,5.13776439 L8.96370759,7.40387468 L9.77193612,10.7921535 C9.89925729,11.3259129 9.62216949,11.5263234 9.15455561,11.2407066 L6.18186736,9.42499992 Z" id="Star-Copy-10"></path>
                        </g>
                    </g>
                </g>
            </g>
        </g>
    </g>
</svg>